<svg xmlns="http://www.w3.org/2000/svg" width="20" height="18.995" viewBox="0 0 20 18.995"><path d="M9.013,21.536A7.013,7.013,0,0,1,4.054,9.6L9.715,4a5,5,0,0,1,7.073,7.063l-5.661,5.641a3.015,3.015,0,0,1-4.248-4.278L12.54,6.788A1,1,0,1,1,13.963,8.2L8.3,13.842a1,1,0,0,0,1.413,1.413L15.375,9.6a2.993,2.993,0,1,0-4.248-4.218L5.467,11.016a4.98,4.98,0,0,0,7.073,7.013l7.785-7.755a1,1,0,0,1,1.423,1.413l-7.785,7.765a7.013,7.013,0,0,1-4.949,2.084Z" transform="translate(-2.039 -2.541)" fill="#666c72"/></svg>