<svg xmlns="http://www.w3.org/2000/svg" width="17.988" height="16.582" viewBox="0 0 17.988 16.582"><g transform="translate(0 -20)"><g transform="translate(0 20)"><path d="M17.285,21.411h-3.46V20.7a.7.7,0,1,0-1.405,0v.708H5.568V20.7a.7.7,0,1,0-1.405,0v.708H.7a.7.7,0,0,0-.7.7V35.88a.7.7,0,0,0,.7.7H17.285a.7.7,0,0,0,.7-.7V22.114A.7.7,0,0,0,17.285,21.411Zm-.7,13.766H1.405V22.816H4.163v.708a.7.7,0,1,0,1.405,0v-.708H12.42v.708a.7.7,0,1,0,1.405,0v-.708h2.758Z" transform="translate(0 -20)" fill="#a4a4a4"/></g><g transform="translate(8.045 26.603)"><circle cx="0.949" cy="0.949" r="0.949" fill="#a4a4a4"/></g><g transform="translate(8.045 30.732)"><circle cx="0.949" cy="0.949" r="0.949" fill="#a4a4a4"/></g><g transform="translate(3.917 26.603)"><circle cx="0.949" cy="0.949" r="0.949" fill="#a4a4a4"/></g><g transform="translate(12.174 26.603)"><circle cx="0.949" cy="0.949" r="0.949" fill="#a4a4a4"/></g><g transform="translate(3.917 30.732)"><circle cx="0.949" cy="0.949" r="0.949" fill="#a4a4a4"/></g><g transform="translate(12.174 30.732)"><circle cx="0.949" cy="0.949" r="0.949" fill="#a4a4a4"/></g></g></svg>