<svg xmlns="http://www.w3.org/2000/svg" width="20.018" height="22.066" viewBox="0 0 20.018 22.066"><g transform="translate(0.15 0.15)"><path d="M378.654,50.656l1.366-1.366a.638.638,0,1,0-.9-.9l-1.366,1.366a.638.638,0,0,0,.9.9Z" transform="translate(-362.538 -46.152)" fill="#a4a4a4" stroke="#a4a4a4" strokeWidth="0.3"/><path d="M32.7,48.388a.638.638,0,0,0-1.028.179L26.257,60.078l-1.97,1.97a.638.638,0,0,0,0,.9l2.732,2.732a.638.638,0,0,0,.9,0l1.6-1.6,3.647,3.647a.638.638,0,0,0,.9,0l2.391-2.391a.638.638,0,0,0,0-.9l-2.6-2.6L41.4,58.295a.638.638,0,0,0,.179-1.028ZM27.47,64.329,25.64,62.5l1.147-1.147,1.83,1.83Zm7.636.56-1.489,1.489-3.006-3.006,2.025-.953Zm-5.453-2.475-2.1-2.1,4.887-10.385,7.6,7.6Z" transform="translate(-24.1 -46.152)" fill="#a4a4a4" stroke="#a4a4a4" strokeWidth="0.3"/><path d="M427.77,176.733H426.4a.638.638,0,1,0,0,1.275h1.366a.638.638,0,1,0,0-1.275Z" transform="translate(-408.69 -169.219)" fill="#a4a4a4" stroke="#a4a4a4" strokeWidth="0.3"/><path d="M281.8,2.641A.638.638,0,0,0,282.441,2V.638a.638.638,0,1,0-1.275,0V2A.638.638,0,0,0,281.8,2.641Z" transform="translate(-270.237)" fill="#a4a4a4" stroke="#a4a4a4" strokeWidth="0.3"/></g></svg>