<svg xmlns="http://www.w3.org/2000/svg" width="21.964" height="22" viewBox="0 0 21.964 22"><path d="M35.285,17.221h-2.64V15h-2.2v2.221h-8.8V15h-2.2v2.221h-2.6a1.76,1.76,0,0,0-1.76,1.76V35.24A1.76,1.76,0,0,0,16.841,37H35.285a1.76,1.76,0,0,0,1.76-1.76V18.981A1.76,1.76,0,0,0,35.285,17.221ZM34.845,34.8h-17.6v-11h17.6Zm0-13.2h-17.6V19.4h17.6Z" transform="translate(-15.081 -15)" fill="#666c72"/><rect width="2.2" height="2.2" transform="translate(10.084 11)" fill="#666c72"/><rect width="2.2" height="2.2" transform="translate(14.484 11)" fill="#666c72"/><rect width="2.2" height="2.2" transform="translate(10.084 15.4)" fill="#666c72"/><rect width="2.2" height="2.2" transform="translate(5.684 15.4)" fill="#666c72"/></svg>