<svg xmlns="http://www.w3.org/2000/svg" width="24.115" height="26.787" viewBox="0 0 24.115 26.787"><path d="M25.835,7.308a.718.718,0,0,1-.308-.074,15.655,15.655,0,0,0-14.92-.007.671.671,0,0,1-.643-1.179,17.017,17.017,0,0,1,16.179-.007.67.67,0,0,1-.308,1.266ZM6.669,14.34a.7.7,0,0,1-.388-.121.667.667,0,0,1-.161-.931A13.949,13.949,0,0,1,11.149,8.9a15.453,15.453,0,0,1,13.815-.013,14.011,14.011,0,0,1,5.023,4.353.665.665,0,0,1-.154.931.673.673,0,0,1-.938-.154,12.574,12.574,0,0,0-4.54-3.938,14.092,14.092,0,0,0-12.59.013,12.577,12.577,0,0,0-4.547,3.971.682.682,0,0,1-.549.275ZM15.046,30.5a.665.665,0,0,1-.475-.2,14.035,14.035,0,0,1-2.692-3.529,11.919,11.919,0,0,1-1.413-5.819,7.419,7.419,0,0,1,7.587-7.219,7.415,7.415,0,0,1,7.587,7.219.67.67,0,1,1-1.339,0,6.077,6.077,0,0,0-6.248-5.88,6.082,6.082,0,0,0-6.248,5.88,10.608,10.608,0,0,0,1.239,5.163,12.7,12.7,0,0,0,2.471,3.241.661.661,0,0,1-.007.944.6.6,0,0,1-.462.2Zm9.6-2.478a7.275,7.275,0,0,1-4.152-1.185,7.141,7.141,0,0,1-3.181-5.88.67.67,0,1,1,1.339,0,5.795,5.795,0,0,0,5.994,5.726,8.79,8.79,0,0,0,1.4-.127.67.67,0,1,1,.234,1.319,9.59,9.59,0,0,1-1.634.147Zm-2.7,2.766a.5.5,0,0,1-.174-.027,10.229,10.229,0,0,1-4.976-2.813,9.805,9.805,0,0,1-2.9-6.991,4.129,4.129,0,0,1,8.25,0,2.792,2.792,0,0,0,5.572,0,9.451,9.451,0,0,0-9.7-9.154A9.771,9.771,0,0,0,9.16,17.2a8.6,8.6,0,0,0-.784,3.757,13.363,13.363,0,0,0,.891,4.828.672.672,0,0,1-1.259.469,14.912,14.912,0,0,1-.978-5.3,9.917,9.917,0,0,1,.917-4.333,11.124,11.124,0,0,1,10.059-6.154c6.087,0,11.043,4.708,11.043,10.494a4.129,4.129,0,0,1-8.25,0,2.792,2.792,0,0,0-5.572,0,8.473,8.473,0,0,0,2.5,6.04,9.035,9.035,0,0,0,4.386,2.471.668.668,0,0,1-.174,1.313Z" transform="translate(-5.996 -4)" fill="#666c72"/></svg>