<svg xmlns="http://www.w3.org/2000/svg" width="26.871" height="26.787" viewBox="0 0 26.871 26.787"><defs><style>.a{fill:#666c72;}</style></defs><path class="a" d="M137.626,32.3l-.98-1.365a8.4,8.4,0,0,0-1.382,1.244l1.255,1.117A6.754,6.754,0,0,1,137.626,32.3Z" transform="translate(-128.165 -29.349)"/><path class="a" d="M103.662,84.551l-1.475-.8a8.091,8.091,0,0,0-.7,1.734l1.62.443A6.388,6.388,0,0,1,103.662,84.551Z" transform="translate(-96.162 -79.394)"/><path class="a" d="M109.435,20.265c1.829-1.442,3.359-3.266,3.359-5.333V9.026A8.324,8.324,0,0,0,104.4.8a8.507,8.507,0,0,0-3.329.672l.653,1.547a6.846,6.846,0,0,1,2.675-.539,6.643,6.643,0,0,1,6.718,6.55v5.9c0,1.679-1.831,3.708-5.023,5.563a3.434,3.434,0,0,1-3.389,0c-3.192-1.854-5.023-3.882-5.023-5.562V8.792L96,8.729v6.2c0,2.067,1.53,3.891,3.359,5.334v4.367l-2.894,1.445.751,1.5,3.823-1.912V21.446c.276.176.552.344.822.5a5.058,5.058,0,0,0,5.074,0c.27-.157.546-.326.822-.5v4.221l3.823,1.916.751-1.5-2.894-1.451Z" transform="translate(-90.962 -0.797)"/><path class="a" d="M1.679,2.482H5.038V.8H0V5.841H1.679Z" transform="translate(0 -0.803)"/><path class="a" d="M419.359,324.162H416v1.679h5.038V320.8h-1.679Z" transform="translate(-394.167 -304.008)"/><path class="a" d="M416,.8V2.482h3.359V5.841h1.679V.8Z" transform="translate(-394.167 -0.803)"/><path class="a" d="M1.679,320.8H0v5.038H5.038v-1.679H1.679Z" transform="translate(0 -304.008)"/></svg>