<svg xmlns="http://www.w3.org/2000/svg" width="18" height="18" viewBox="0 0 18 18"><g transform="translate(-4 -233.641)"><g transform="translate(4 233.641)" fill="#fff" stroke="#a4a4a4" strokeWidth="1.4"><circle cx="9" cy="9" r="9" stroke="none"/><circle cx="9" cy="9" r="8.3" fill="none"/></g><g transform="translate(9.871 238.724)"><path d="M60.35.093A.177.177,0,0,0,60.193,0H59.086a.168.168,0,0,0-.168.11L57.81,2.546q-.041.1-.159.354t-.177.394q-.215-.5-.325-.725L55.9.1a.183.183,0,0,0-.168-.1H54.608a.182.182,0,0,0-.162.093.2.2,0,0,0,0,.186l1.862,3.353H55.066a.188.188,0,0,0-.186.186v.6a.176.176,0,0,0,.055.133.183.183,0,0,0,.13.052h1.67V5.1h-1.67a.188.188,0,0,0-.186.186v.6a.176.176,0,0,0,.055.133.183.183,0,0,0,.13.052h1.671V7.981a.175.175,0,0,0,.055.133.184.184,0,0,0,.13.052h1a.188.188,0,0,0,.186-.186V6.067h1.682a.183.183,0,0,0,.13-.052.175.175,0,0,0,.055-.133v-.6a.188.188,0,0,0-.185-.186H58.105V4.605h1.682a.183.183,0,0,0,.13-.052.175.175,0,0,0,.055-.133v-.6a.188.188,0,0,0-.185-.186H58.54L60.356.273A.176.176,0,0,0,60.35.093Z" transform="translate(-54.422)" fill="#a4a4a4"/></g></g></svg>