<svg xmlns="http://www.w3.org/2000/svg" width="16" height="17.778" viewBox="0 0 16 17.778"><path d="M36.391,5.835,30.592.487a1.871,1.871,0,0,0-2.518,0l-5.8,5.348a3.193,3.193,0,0,0-.943,2.145V16a1.779,1.779,0,0,0,1.778,1.775h5.347v-5.3h1.768v5.3h5.326A1.778,1.778,0,0,0,37.333,16V7.98A3.19,3.19,0,0,0,36.391,5.835ZM35.552,16H32V10.7H26.681V16l-3.57,0V7.98a1.469,1.469,0,0,1,.37-.838l5.8-5.348a.1.1,0,0,1,.107,0l5.8,5.348a1.464,1.464,0,0,1,.37.838Q35.555,16,35.552,16Z" transform="translate(-21.333 0)" fill="#a4a4a4"/></svg>