<svg xmlns="http://www.w3.org/2000/svg" width="17.072" height="17.072" viewBox="0 0 17.072 17.072"><g transform="translate(0.1 0.1)"><g transform="translate(3.163 3.163)"><path d="M102.854,96H96.527a.527.527,0,0,0,0,1.054h6.327a.527.527,0,0,0,0-1.054Z" transform="translate(-96 -96)" fill="#a4a4a4" stroke="#a4a4a4" strokeWidth="0.2"/></g><g transform="translate(3.163 5.272)"><path d="M100.745,160H96.527a.527.527,0,1,0,0,1.054h4.218a.527.527,0,1,0,0-1.054Z" transform="translate(-96 -160)" fill="#a4a4a4" stroke="#a4a4a4" strokeWidth="0.2"/></g><path d="M11.6,0H2.109A2.111,2.111,0,0,0,0,2.109V12.654a.527.527,0,0,0,.3.478.535.535,0,0,0,.224.05.527.527,0,0,0,.337-.122l3.017-2.514H11.6a2.111,2.111,0,0,0,2.109-2.109V2.109A2.111,2.111,0,0,0,11.6,0Zm1.054,8.436A1.056,1.056,0,0,1,11.6,9.49H3.691a.527.527,0,0,0-.337.122l-2.3,1.916V2.109A1.056,1.056,0,0,1,2.109,1.054H11.6a1.056,1.056,0,0,1,1.054,1.054Z" fill="#a4a4a4" stroke="#a4a4a4" strokeWidth="0.2"/><g transform="translate(4.218 4.218)"><path d="M138.545,128a.527.527,0,1,0,0,1.054,1.056,1.056,0,0,1,1.054,1.054v8.92l-1.78-1.424a.531.531,0,0,0-.329-.115h-7.381a1.056,1.056,0,0,1-1.054-1.054v-.527a.527.527,0,0,0-1.054,0v.527a2.111,2.111,0,0,0,2.109,2.109h7.2l2.492,1.994a.528.528,0,0,0,.857-.412V130.109A2.111,2.111,0,0,0,138.545,128Z" transform="translate(-128 -128)" fill="#a4a4a4" stroke="#a4a4a4" strokeWidth="0.2"/></g></g></svg>