<svg xmlns="http://www.w3.org/2000/svg" width="18.988" height="18.988" viewBox="0 0 18.988 18.988"><path d="M1.622,18.9c.214.132-.817.083,15.141.083a2.227,2.227,0,0,0,2.225-2.224V15.087a.556.556,0,0,0-.556-.556h-1.3V2.325A2.328,2.328,0,0,0,14.808,0H.556A.556.556,0,0,0,0,.556v16.2A2.225,2.225,0,0,0,1.622,18.9Zm16.253-2.141a1.114,1.114,0,0,1-1.113,1.112H4.152a2.21,2.21,0,0,0,.3-1.112V15.643H17.875ZM1.113,1.112h13.7a1.214,1.214,0,0,1,1.213,1.213V14.531H3.894a.556.556,0,0,0-.556.556v1.64a1.117,1.117,0,0,1-1.9.815,1.1,1.1,0,0,1-.326-.786Z" fill="#a4a4a4"/><path d="M94.21,92.069h9.074a.556.556,0,1,0,0-1.112H94.21a.556.556,0,1,0,0,1.112Z" transform="translate(-90.181 -87.584)" fill="#a4a4a4"/><path d="M94.21,162.036h9.074a.556.556,0,1,0,0-1.112H94.21a.556.556,0,1,0,0,1.112Z" transform="translate(-90.181 -154.957)" fill="#a4a4a4"/><path d="M94.21,232h9.074a.556.556,0,1,0,0-1.112H94.21a.556.556,0,1,0,0,1.112Z" transform="translate(-90.181 -222.33)" fill="#a4a4a4"/><path d="M94.21,301.971h9.074a.556.556,0,1,0,0-1.112H94.21a.556.556,0,1,0,0,1.112Z" transform="translate(-90.181 -289.701)" fill="#a4a4a4"/></svg>