<svg xmlns="http://www.w3.org/2000/svg" width="18.017" height="15.76" viewBox="0 0 18.017 15.76"><g transform="translate(0.15 0.15)"><path d="M15.994,32.6H1.723A1.725,1.725,0,0,0,0,34.322V46.336a1.725,1.725,0,0,0,1.723,1.723H15.994a1.725,1.725,0,0,0,1.723-1.723V34.322A1.725,1.725,0,0,0,15.994,32.6ZM1.723,33.637H15.994a.685.685,0,0,1,.685.685v2.372H1.038V34.322a.685.685,0,0,1,.685-.685ZM15.994,47.021H1.723a.685.685,0,0,1-.685-.685v-8.6h15.64v8.6A.685.685,0,0,1,15.994,47.021Z" transform="translate(0 -32.599)" fill="#a4a4a4" stroke="#a4a4a4" strokeWidth="0.3"/><circle cx="0.523" cy="0.523" r="0.523" transform="translate(2.084 2.075)" fill="#a4a4a4" stroke="#a4a4a4" strokeWidth="0.3"/><circle cx="0.523" cy="0.523" r="0.523" transform="translate(4.21 2.075)" fill="#a4a4a4" stroke="#a4a4a4" strokeWidth="0.3"/><circle cx="0.523" cy="0.523" r="0.523" transform="translate(6.431 2.075)" fill="#a4a4a4" stroke="#a4a4a4" strokeWidth="0.3"/></g></svg>