<svg xmlns="http://www.w3.org/2000/svg" width="15.575" height="17.826" viewBox="0 0 15.575 17.826"><g transform="translate(-32.862 0.2)"><g transform="translate(33.062)"><g transform="translate(0)"><path d="M48.169,4.809l-.013-.022a.823.823,0,0,0-.062-.106L45.67.489A.983.983,0,0,0,44.821,0H36.478a.983.983,0,0,0-.849.491L33.165,4.765a.512.512,0,0,0-.049.12.863.863,0,0,0-.054.3v11.04a1.2,1.2,0,0,0,1.2,1.2H47.036a1.2,1.2,0,0,0,1.2-1.2V5.145c0-.015,0-.03,0-.044A.508.508,0,0,0,48.169,4.809ZM41.178,1.021H44.8l1.907,3.3H41.178Zm-4.676,0h3.654v3.3H34.6Zm10.714,15.2a.18.18,0,0,1-.179.179H34.263a.18.18,0,0,1-.179-.179V5.34H47.216Z" transform="translate(-33.062)" fill="#a4a4a4" stroke="#a4a4a4" strokeWidth="0.4"/></g></g><g transform="translate(37.122 8.222)"><g transform="translate(0)"><path d="M191.386,265.848a.739.739,0,0,0-1.045,0l-3.3,3.3-1.269-1.269a.739.739,0,0,0-1.045,1.045l1.791,1.791a.739.739,0,0,0,1.045,0l3.822-3.822A.739.739,0,0,0,191.386,265.848Z" transform="translate(-184.512 -265.632)" fill="#a4a4a4"/></g></g></g></svg>