<svg xmlns="http://www.w3.org/2000/svg" width="17.988" height="18.693" viewBox="0 0 17.988 18.693"><path d="M44.836,2.86V.692a.692.692,0,0,0-1.384,0V2.86h-.692a3.456,3.456,0,0,0-2.767,1.386A3.456,3.456,0,0,0,37.226,2.86h-.692V.692a.692.692,0,1,0-1.384,0V6.319a.721.721,0,0,0,.073.309L36.35,8.882c-1.646,1.386-3.028.987-4.115,4.9C31.367,16.907,31.019,17.8,31,17.915a.693.693,0,0,0,.687.778h16.6a.7.7,0,0,0,.687-.778c-.014-.115-.362-1.008-1.231-4.134-1.087-3.912-2.469-3.513-4.115-4.9l1.127-2.253a.725.725,0,0,0,.073-.309V4.243C44.843,2.889,44.83,2.848,44.836,2.86Zm-7.61,1.384A2.078,2.078,0,0,1,39.3,6.319a.692.692,0,0,0,1.384,0,2.078,2.078,0,0,1,2.076-2.076h.692V6.156L42.333,8.394h-4.68L36.534,6.156V4.243Zm9.188,9.892c.574,2.063.919,2.144,1.081,3.174H44.836V15.233a.692.692,0,1,0-1.384,0v2.076H42.069V15.233a.692.692,0,1,0-1.384,0v2.076H39.3V15.233a.692.692,0,1,0-1.384,0v2.076H36.534V15.233a.692.692,0,1,0-1.384,0v2.076H32.492c.163-1.03.508-1.111,1.081-3.174,1.047-3.765,2.384-3.25,3.873-4.357h5.1C44.03,10.885,45.366,10.37,46.414,14.135Z" transform="translate(-30.999)" fill="#a4a4a4"/></svg>