<svg xmlns="http://www.w3.org/2000/svg" width="18.2" height="15.95" viewBox="0 0 18.2 15.95"><g transform="translate(0.1 0.1)"><path d="M17.983,36.926l-1.125-4.5A.562.562,0,0,0,16.313,32H1.687a.562.562,0,0,0-.546.426l-1.125,4.5A.55.55,0,0,0,0,37.063a2.853,2.853,0,0,0,1.125,2.285v7.84a.563.563,0,0,0,.562.563H7.313a.563.563,0,0,0,.562-.562V43.25h2.25v3.938a.563.563,0,0,0,.563.563h5.625a.563.563,0,0,0,.563-.562v-7.84A2.853,2.853,0,0,0,18,37.063.55.55,0,0,0,17.983,36.926Zm-2.233,9.7h-4.5V42.688a.563.563,0,0,0-.562-.562H7.313a.563.563,0,0,0-.563.563v3.937H2.25V39.83a2.5,2.5,0,0,0,.422.045,2.624,2.624,0,0,0,2.109-1.088,2.589,2.589,0,0,0,4.219,0,2.589,2.589,0,0,0,4.219,0,2.624,2.624,0,0,0,2.109,1.088,2.5,2.5,0,0,0,.422-.045Zm-.422-7.875a1.624,1.624,0,0,1-1.547-1.687.563.563,0,0,0-1.125,0,1.624,1.624,0,0,1-1.547,1.688,1.624,1.624,0,0,1-1.547-1.687.563.563,0,0,0-1.125,0A1.624,1.624,0,0,1,6.891,38.75a1.624,1.624,0,0,1-1.547-1.687.563.563,0,0,0-1.125,0A1.624,1.624,0,0,1,2.672,38.75a1.618,1.618,0,0,1-1.546-1.622l1-4H15.874l1,4A1.62,1.62,0,0,1,15.328,38.75Z" transform="translate(0 -32)" fill="#a4a4a4" stroke="#666c72" strokeWidth="0.2"/></g></svg>