<svg xmlns="http://www.w3.org/2000/svg" width="20.317" height="18.923" viewBox="0 0 20.317 18.923"><path d="M19.061,25.62a5.028,5.028,0,0,0-8.6-5.2A7.606,7.606,0,1,0,6.241,34.957l1.065,1.328a.385.385,0,0,0,.6,0l1.065-1.328a7.608,7.608,0,0,0,6.212-6.817,4.983,4.983,0,0,0,2.548-1l.086-.064,1.122.166a.385.385,0,0,0,.428-.481ZM8.7,34.222a.385.385,0,0,0-.239.139l-.856,1.067-.856-1.067a.385.385,0,0,0-.239-.139,6.836,6.836,0,1,1,2.19,0Zm9.618-8.86a.385.385,0,0,0-.044.3l.2.731-.7-.1a.385.385,0,0,0-.287.073l-.217.162a4.221,4.221,0,0,1-2.055.837,7.614,7.614,0,0,0-4.05-6.611,4.258,4.258,0,0,1,7.157,4.611Z" transform="translate(0.3 -17.806)" fill="#a4a4a4" stroke="#a4a4a4" strokeWidth="0.6"/></svg>