<svg xmlns="http://www.w3.org/2000/svg" width="16.872" height="16.441" viewBox="0 0 16.872 16.441"><path d="M7.1,14.115H2.992a1.5,1.5,0,0,1-1.5-1.5V4.862a1.5,1.5,0,0,1,1.5-1.5H5.344V3.74a2.244,2.244,0,1,0,4.488,0V3.366h2.356a1.5,1.5,0,0,1,1.5,1.5V8.19a.748.748,0,1,0,1.5,0V4.862A3,3,0,0,0,12.188,1.87H9.832V.748A.748.748,0,0,0,9.084,0H6.092a.748.748,0,0,0-.748.748V1.87H2.992A3,3,0,0,0,0,4.862v7.757a3,3,0,0,0,2.992,2.992H7.1a.748.748,0,1,0,0-1.5ZM6.84,1.5h1.5V3.74a.748.748,0,1,1-1.5,0ZM12.347,7.39a4.6,4.6,0,0,0-4.6,4.525,4.6,4.6,0,0,0,4.6,4.525,4.525,4.525,0,1,0,0-9.05Zm0,7.554a3.029,3.029,0,1,1,3.029-3.029A3.033,3.033,0,0,1,12.347,14.945Zm1.832-3.029a.748.748,0,0,1-.748.748H12.347a.748.748,0,0,1-.748-.748V10.382a.748.748,0,1,1,1.5,0v.785h.337A.748.748,0,0,1,14.179,11.915Zm0,0" fill="#a4a4a4"/></svg>